<?xml version="1.0" encoding="iso-8859-1"?>
<!-- Generator: Adobe Illustrator 19.0.0, SVG Export Plug-In . SVG Version: 6.00 Build 0)  -->
<svg version="1.1" id="Layer_1" xmlns="http://www.w3.org/2000/svg" xmlns:xlink="http://www.w3.org/1999/xlink" x="0px" y="0px"
	 viewBox="0 0 512 512" style="enable-background:new 0 0 512 512;" xml:space="preserve">
<path style="fill:#DBDBDB;" d="M502.802,119.57c-5.081,0-9.198,4.117-9.198,9.198v39.856h-39.856c-5.081,0-9.198,4.117-9.198,9.198
	s4.117,9.198,9.198,9.198h39.856v39.856c0,5.081,4.117,9.198,9.198,9.198c5.081,0,9.198-4.117,9.198-9.198v-98.108
	C512,123.687,507.883,119.57,502.802,119.57z"/>
<path style="fill:#EFC27B;" d="M331.368,67.449h-61.826l-42.795,42.796c-40.709,40.707-40.709,106.708,0,147.416
	c40.709,40.709,106.708,40.709,147.416,0c40.709-40.707,40.709-106.709,0-147.416L331.368,67.449z"/>
<circle style="fill:#88888F;" cx="98.108" cy="361.772" r="73.581"/>
<rect y="67.449" style="fill:#EFC27B;" width="196.216" height="220.743"/>
<rect x="404.695" y="67.449" style="fill:#E9A440;" width="49.054" height="367.904"/>
<g>
	<path style="fill:#88888F;" d="M110.371,150.229H85.844c-5.08,0-9.198-4.117-9.198-9.198c0-5.081,4.118-9.198,9.198-9.198h24.527
		c5.08,0,9.198,4.117,9.198,9.198C119.569,146.111,115.451,150.229,110.371,150.229z"/>
	<path style="fill:#88888F;" d="M110.371,223.81H85.844c-5.08,0-9.198-4.117-9.198-9.198s4.118-9.198,9.198-9.198h24.527
		c5.08,0,9.198,4.117,9.198,9.198C119.569,219.692,115.451,223.81,110.371,223.81z"/>
	<path style="fill:#88888F;" d="M134.898,174.756H61.317c-5.08,0-9.198-4.117-9.198-9.198s4.118-9.198,9.198-9.198h73.581
		c5.08,0,9.198,4.117,9.198,9.198C144.096,170.638,139.978,174.756,134.898,174.756z"/>
	<path style="fill:#88888F;" d="M134.898,199.283H61.317c-5.08,0-9.198-4.117-9.198-9.198s4.118-9.198,9.198-9.198h73.581
		c5.08,0,9.198,4.117,9.198,9.198C144.096,195.165,139.978,199.283,134.898,199.283z"/>
</g>
<path style="fill:#EDEDED;" d="M98.108,383.234c-11.833,0-21.461-9.628-21.461-21.461c0-11.834,9.628-21.461,21.461-21.461
	s21.461,9.627,21.461,21.461C119.569,373.607,109.941,383.234,98.108,383.234z"/>
<path style="fill:#ECB45C;" d="M374.162,110.245l-42.795-42.796h-61.826l-24.272,24.273v180.653
	c40.24,25.162,93.903,20.278,128.893-14.714C414.872,216.953,414.872,150.951,374.162,110.245z"/>
<path style="fill:#EDEDED;" d="M404.695,288.193H196.216c-5.08,0-9.198-4.117-9.198-9.198c0-5.081,4.118-9.198,9.198-9.198h208.479
	c5.081,0,9.198,4.117,9.198,9.198C413.892,284.075,409.775,288.193,404.695,288.193z"/>
<path style="fill:#DBDBDB;" d="M404.695,269.798H245.269v18.395h159.425c5.081,0,9.198-4.117,9.198-9.198
	C413.892,273.914,409.775,269.798,404.695,269.798z"/>
<path style="fill:#88888F;" d="M478.275,444.551H24.527c-5.08,0-9.198-4.117-9.198-9.198s4.118-9.198,9.198-9.198h453.749
	c5.081,0,9.198,4.117,9.198,9.198C487.473,440.433,483.356,444.551,478.275,444.551z"/>
<path style="fill:#797781;" d="M478.275,426.156H245.269v18.395h233.006c5.081,0,9.198-4.117,9.198-9.198
	S483.356,426.156,478.275,426.156z"/>
<path style="fill:#F8F8F9;" d="M400.085,153.295H200.825c-4.883,15.914-5.864,32.759-2.957,49.054h205.174
	C405.948,186.053,404.968,169.209,400.085,153.295z"/>
<path style="fill:#EDEDED;" d="M400.085,153.295H245.269v49.054h157.772C405.948,186.053,404.968,169.209,400.085,153.295z"/>
<g>
</g>
<g>
</g>
<g>
</g>
<g>
</g>
<g>
</g>
<g>
</g>
<g>
</g>
<g>
</g>
<g>
</g>
<g>
</g>
<g>
</g>
<g>
</g>
<g>
</g>
<g>
</g>
<g>
</g>
</svg>
